<svg xmlns="http://www.w3.org/2000/svg" xmlns:xlink="http://www.w3.org/1999/xlink" version="1.1" x="0px" y="0px" viewBox="0 0 100 125" enable-background="new 0 0 100 100" xml:space="preserve"><path d="M88.247,57.875c0.001-0.229,0.003-0.458,0.003-0.688c0-11.018-9.212-32.185-21.815-32.185h-7.983  c0.497-0.802,0.798-1.739,0.798-2.75c0-2.895-2.355-5.25-5.25-5.25c-1.611,0-3.036,0.745-4,1.89c-0.964-1.145-2.389-1.89-4-1.89  c-2.895,0-5.25,2.355-5.25,5.25c0,1.011,0.301,1.948,0.798,2.75h-7.983c-12.603,0-21.815,21.167-21.815,32.185  c0,0.231,0.002,0.459,0.003,0.688c0,0.009,0,0.018,0,0.028c0.055,11.612,1.582,21.1,16.882,21.1h42.73  c15.3,0,16.827-9.488,16.882-21.1C88.247,57.893,88.247,57.884,88.247,57.875z M54,19.502c1.517,0,2.75,1.233,2.75,2.75  s-1.233,2.75-2.75,2.75s-2.75-1.233-2.75-2.75S52.483,19.502,54,19.502z M43.25,22.252c0-1.517,1.233-2.75,2.75-2.75  s2.75,1.233,2.75,2.75s-1.233,2.75-2.75,2.75S43.25,23.769,43.25,22.252z M33.565,27.502h32.87c9.828,0,18.499,16.88,19.255,28.139  c-1.544-1.19-2.751-2.814-3.564-4.135c-1.142-1.855-1.964-3.851-2.835-5.963c-0.848-2.056-1.725-4.183-2.923-6.165  c-3.345-5.537-7.977-8.587-13.042-8.588H50H36.674c-5.065,0.001-9.696,3.051-13.042,8.588c-1.198,1.982-2.075,4.109-2.923,6.165  c-0.871,2.112-1.694,4.107-2.835,5.963c-0.813,1.322-2.02,2.946-3.564,4.135C15.065,44.382,23.737,27.502,33.565,27.502z   M71.365,76.502h-42.73c-12.819,0-14.277-7.019-14.378-17.865c2.632-1.419,4.562-3.897,5.746-5.82  c1.248-2.026,2.147-4.209,3.018-6.32c0.85-2.06,1.652-4.006,2.751-5.825c1.665-2.756,5.295-7.38,10.902-7.381H50h13.326  c5.606,0.001,9.237,4.625,10.902,7.381c1.1,1.819,1.902,3.766,2.751,5.825c0.871,2.111,1.771,4.294,3.018,6.32  c1.184,1.924,3.114,4.402,5.746,5.82C85.643,69.483,84.185,76.502,71.365,76.502z"/><text x="0" y="115" fill="#000000" font-size="5px" font-weight="bold" font-family="'Helvetica Neue', Helvetica, Arial-Unicode, Arial, Sans-serif">Created by Alina Oleynik</text><text x="0" y="120" fill="#000000" font-size="5px" font-weight="bold" font-family="'Helvetica Neue', Helvetica, Arial-Unicode, Arial, Sans-serif">from the Noun Project</text></svg>