<svg xmlns="http://www.w3.org/2000/svg" xmlns:xlink="http://www.w3.org/1999/xlink" version="1.1" x="0px" y="0px" viewBox="0 0 66 82.5" enable-background="new 0 0 66 66" xml:space="preserve"><g><g><path d="M37.2,42.5c-2,0-4.8,1-6.7,1.8c1.2-3,2.6-7.3,1.1-9.1c-1.1-1.3-5-1.3-6.1,0c-1.6,1.8-0.2,6.1,1.1,9.1    c-5.3-2.2-10-3.3-10,2c0,2.4,0.8,3.8,3.3,3.8h0c2,0,4.8-1,6.7-1.8c-1.2,3-2.6,7.3-1.1,9.1c0.8,0.9,2.4,1,3.1,1    c0.7,0,2.3-0.1,3.1-1c1.6-1.8,0.2-6.1-1.1-9.1c2,0.8,4.8,1.8,6.7,1.8c2.4,0,3.3-1.4,3.3-3.8c0-0.7-0.1-2.3-1-3.1    C39,42.7,38.2,42.5,37.2,42.5z M26.9,36.6c0.5-0.4,2.7-0.4,3.1,0c0.7,0.8-0.2,4.1-1.6,7.3C27.2,40.7,26.3,37.3,26.9,36.6z     M18.8,47.8c-0.4-0.5-0.4-2.7,0-3.1c0.1,0,0.3-0.2,1-0.2c1.7,0,4.3,0.9,6.3,1.8C24.8,46.8,19.8,48.7,18.8,47.8z M30.1,56    c-0.1,0.1-0.7,0.3-1.6,0.3c-0.9,0-1.5-0.2-1.6-0.3c-0.7-0.8,0.2-4.1,1.6-7.3C29.8,51.9,30.7,55.2,30.1,56z M38.2,47.8    c-0.1,0-0.3,0.2-1,0.2c-1.7,0-4.3-0.9-6.3-1.8c2-0.8,4.6-1.8,6.3-1.8c0.7,0,0.9,0.2,1,0.2C38.6,45.2,38.6,47.4,38.2,47.8z"/></g><g><path d="M59.7,32.7c0-5.1-8.7-22.7-9.1-23.4c-0.3-0.7-1.5-0.7-1.8,0c-0.3,0.6-6.2,12.4-8.3,19.5c-1.6-1-3.2-1.8-5-2.4    c-1.2-0.4-2-1.5-2-2.8v-9.9h1c1.1,0,2-0.9,2-2v-4c0-1.1-0.9-2-2-2h-1V1.5c0-0.6-0.4-1-1-1h-8c-0.6,0-1,0.4-1,1v4.2h-1    c-1.1,0-2,0.9-2,2v4c0,2.4,2.9,2,3,2v9.9c0,1.3-0.8,2.4-2,2.8c-9.1,3-15.2,11.5-15.2,21c0,6.3,2.7,12.4,7.5,16.6    c1.1,0.9,2.5,1.5,3.9,1.5h21.5c1.5,0,2.9-0.5,3.9-1.5c5.9-5.2,8.8-13.3,7-21.4C55.4,42.4,59.7,38,59.7,32.7z M25.5,2.5h6v3.2h-6    V2.5z M22.5,7.7c0.2,0,10.2,0,10,0c0.2,0,2.1,0,2,0l0,4h-12V7.7z M41.8,62.5c-0.7,0.6-1.6,1-2.6,1H17.7c-1,0-1.9-0.3-2.6-1    c-4.3-3.8-6.8-9.3-6.8-15.1c0-8.7,5.6-16.4,13.8-19.1c2-0.7,3.4-2.6,3.4-4.7v-9.9h6v9.9c0,2.1,1.4,4,3.4,4.7    c1.8,0.6,3.5,1.5,5.1,2.5c-0.2,0.7-0.2,1.4-0.2,1.9c0,5,3.6,9.1,8.4,9.9C49.9,50.1,47.3,57.7,41.8,62.5z M49.7,40.7    c-4.4,0-8-3.6-8-8c0-0.5,0.1-1.2,0.3-2.1c0,0,0,0,0,0c1.2-4.7,5.2-13.6,7.7-18.6c2.9,5.9,8,17.3,8,20.7    C57.7,37.1,54.1,40.7,49.7,40.7z"/></g><g><path d="M50.2,35.2c-1.7,0-3-1.3-3-3c0-0.6-0.4-1-1-1c-0.6,0-1,0.4-1,1c0,2.8,2.2,5,5,5c0.6,0,1-0.4,1-1    C51.2,35.6,50.7,35.2,50.2,35.2z"/></g></g><text x="0" y="81" fill="#000000" font-size="5px" font-weight="bold" font-family="'Helvetica Neue', Helvetica, Arial-Unicode, Arial, Sans-serif">Created by ProSymbols</text><text x="0" y="86" fill="#000000" font-size="5px" font-weight="bold" font-family="'Helvetica Neue', Helvetica, Arial-Unicode, Arial, Sans-serif">from the Noun Project</text></svg>