<svg xmlns="http://www.w3.org/2000/svg" data-name="Layer 1" viewBox="0 0 100 125" x="0px" y="0px"><title>fashion jadi</title><path d="M77.79,15.86a.75.75,0,0,0-.74-.89H27.7a.75.75,0,0,0-.74.89l9.22,49.29V76.7A3.78,3.78,0,0,0,40,80.47H64.79a3.78,3.78,0,0,0,3.77-3.77V65.14ZM67.19,64.32H37.56l-8-42.85H75.21Zm-29.51,1.5H67.07v1.1H37.68ZM29.55,16.47v1.75a.75.75,0,0,0,1.5,0V16.47h1.1v1.75a.75.75,0,0,0,1.5,0V16.47h1.1v1.75a.75.75,0,0,0,1.5,0V16.47h1.1v1.75a.75.75,0,0,0,1.5,0V16.47h1.1v1.75a.75.75,0,0,0,1.5,0V16.47h1.1v1.75a.75.75,0,1,0,1.5,0V16.47h1.1v1.75a.75.75,0,1,0,1.5,0V16.47h1.1v1.75a.75.75,0,1,0,1.5,0V16.47h1.1v1.75a.75.75,0,1,0,1.5,0V16.47h1.1v1.75a.75.75,0,1,0,1.5,0V16.47h1.1v1.75a.75.75,0,1,0,1.5,0V16.47h1.1v1.75a.75.75,0,1,0,1.5,0V16.47h1.1v1.75a.75.75,0,1,0,1.5,0V16.47h1.1v1.75a.75.75,0,0,0,1.5,0V16.47h1.1v1.75a.75.75,0,0,0,1.5,0V16.47h1.1v1.75a.75.75,0,0,0,1.5,0V16.47h1.1v1.75a.75.75,0,0,0,1.5,0V16.47h1.1v1.75a.75.75,0,0,0,1.5,0V16.47h.94L75.49,20H29.26l-.66-3.5ZM64.79,79H40a2.27,2.27,0,0,1-2.27-2.27V68.42H67.07V76.7A2.27,2.27,0,0,1,64.79,79Z"/><path d="M52.38,34a9.6,9.6,0,1,0,9.6,9.6A9.61,9.61,0,0,0,52.38,34Zm0,17.7a8.1,8.1,0,1,1,8.1-8.1A8.11,8.11,0,0,1,52.38,51.72Z"/><path d="M52.38,49.22a.75.75,0,0,0,0,1.5,7.11,7.11,0,0,0,7.1-7.1.75.75,0,0,0-1.5,0A5.61,5.61,0,0,1,52.38,49.22Z"/><path d="M58.87,74.42H47.13a.75.75,0,0,0,0,1.5H58.87a.75.75,0,1,0,0-1.5Z"/><path d="M69.93,29.79a.75.75,0,0,0-.85.63L64.95,58.13a.75.75,0,0,0,.63.85h.11a.75.75,0,0,0,.74-.64l4.13-27.71A.75.75,0,0,0,69.93,29.79Z"/><text x="0" y="115" fill="#000000" font-size="5px" font-weight="bold" font-family="'Helvetica Neue', Helvetica, Arial-Unicode, Arial, Sans-serif">Created by Edwin Prayogi M</text><text x="0" y="120" fill="#000000" font-size="5px" font-weight="bold" font-family="'Helvetica Neue', Helvetica, Arial-Unicode, Arial, Sans-serif">from the Noun Project</text></svg>