<svg xmlns="http://www.w3.org/2000/svg" data-name="Layer 1" viewBox="0 0 100 125" x="0px" y="0px"><title>Noun_Project_100Icon_10px_grid (이기범)</title><path d="M90.5,59.21a2,2,0,0,0-1.86-1.27H75.18a9.82,9.82,0,0,0,3.51-7.53V44.15a9.84,9.84,0,0,0-5.34-8.77l-3.92-2A22.9,22.9,0,0,0,59,30.81H41a22.9,22.9,0,0,0-10.46,2.54l-3.92,2a9.84,9.84,0,0,0-5.34,8.77v6.27a9.82,9.82,0,0,0,3.51,7.53H11.36A2,2,0,0,0,10,61.41l7.26,6.72A4,4,0,0,0,20,69.19H80a4,4,0,0,0,2.72-1.06L90,61.41A2,2,0,0,0,90.5,59.21ZM20,67.19a2,2,0,0,1-1.36-.53l-7.26-6.72H88.64l-7.26,6.72a2,2,0,0,1-1.36.53Zm7.58-9.78a7.85,7.85,0,0,1-4.26-7V44.15a7.85,7.85,0,0,1,4.26-7l3.92-2A20.89,20.89,0,0,1,41,32.81H59a20.89,20.89,0,0,1,9.54,2.32l3.92,2a7.85,7.85,0,0,1,4.26,7v6.27a7.85,7.85,0,0,1-4.26,7l-1,.53H28.6Z"/><text x="0" y="115" fill="#000000" font-size="5px" font-weight="bold" font-family="'Helvetica Neue', Helvetica, Arial-Unicode, Arial, Sans-serif">Created by 1516</text><text x="0" y="120" fill="#000000" font-size="5px" font-weight="bold" font-family="'Helvetica Neue', Helvetica, Arial-Unicode, Arial, Sans-serif">from the Noun Project</text></svg>