<svg xmlns="http://www.w3.org/2000/svg" xmlns:xlink="http://www.w3.org/1999/xlink" version="1.0" x="0px" y="0px" viewBox="0 0 100 125" enable-background="new 0 0 100 100" xml:space="preserve"><rect x="41.16" y="56.158" transform="matrix(0.7069 -0.7073 0.7073 0.7069 -31.3197 54.4149)" fill="none" stroke="#000000" stroke-width="2" stroke-linecap="round" stroke-linejoin="round" stroke-miterlimit="10" width="17.675" height="17.681"/><path fill="none" stroke="#000000" stroke-width="2" stroke-linecap="round" stroke-linejoin="round" stroke-miterlimit="10" d="  M64.998,10c-3.838,3.838-9.143,6.215-15,6.215h-15v7.5h11.25V32.5h7.502v-9.038c4.014-0.529,7.826-1.896,11.248-4.003V10z"/><polygon fill="none" stroke="#000000" stroke-width="2" stroke-linecap="round" stroke-linejoin="round" stroke-miterlimit="10" points="  62.496,40.001 37.499,40.001 39.998,32.5 59.998,32.5 "/><path fill="none" stroke="#000000" stroke-width="2" stroke-linecap="round" stroke-linejoin="round" stroke-miterlimit="10" d="  M70,84.999C70,87.761,67.76,90,65.002,90H34.999c-2.761,0-5-2.237-5-4.999V44.999c0-2.759,2.237-4.998,4.999-4.998h30  c2.762,0,5.002,2.235,5.002,4.998V84.999z"/><text x="0" y="115" fill="#000000" font-size="5px" font-weight="bold" font-family="'Helvetica Neue', Helvetica, Arial-Unicode, Arial, Sans-serif">Created by Danil Polshin</text><text x="0" y="120" fill="#000000" font-size="5px" font-weight="bold" font-family="'Helvetica Neue', Helvetica, Arial-Unicode, Arial, Sans-serif">from the Noun Project</text></svg>