<svg xmlns="http://www.w3.org/2000/svg" xmlns:xlink="http://www.w3.org/1999/xlink" version="1.1" x="0px" y="0px" viewBox="0 0 64 80" style="enable-background:new 0 0 64 64;" xml:space="preserve"><g><path d="M45,39c10.477,0,19-8.523,19-19S55.477,1,45,1H21c-3.412,0-6.716,0.91-9.627,2.626C10.663,3.24,9.863,3,9,3   C6.243,3,4,5.243,4,8c0,0.863,0.24,1.664,0.627,2.373C2.91,13.285,2,16.588,2,20c0,5.725,2.557,10.855,6.575,14.341   C4.788,35.404,2,38.879,2,43h2c0-3.796,3.039-6.888,6.81-6.99C13.759,37.893,17.249,39,21,39h19v10c0,1.654-1.346,3-3,3   s-3-1.346-3-3c0-4.411-3.589-8-8-8s-8,3.589-8,8v14h2V49c0-3.309,2.691-6,6-6s6,2.691,6,6c0,2.757,2.243,5,5,5s5-2.243,5-5V39H45z    M9,5c1.654,0,3,1.346,3,3s-1.346,3-3,3S6,9.654,6,8S7.346,5,9,5z M4,20c0-2.822,0.698-5.558,2.014-8.014   C6.85,12.614,7.877,13,9,13c2.757,0,5-2.243,5-5c0-1.123-0.386-2.15-1.013-2.985C15.442,3.698,18.179,3,21,3h24   c9.374,0,17,7.626,17,17s-7.626,17-17,17H21C11.626,37,4,29.374,4,20z"/><path d="M10,20H8c0,6.271,6.448,11,15,11h17v-2H23C15.589,29,10,25.131,10,20z"/><path d="M11,47c-2.757,0-5,2.243-5,5s2.243,5,5,5s5-2.243,5-5S13.757,47,11,47z M11,55c-1.654,0-3-1.346-3-3s1.346-3,3-3   s3,1.346,3,3S12.654,55,11,55z"/><path d="M58,40c-2.206,0-4,1.794-4,4s1.794,4,4,4s4-1.794,4-4S60.206,40,58,40z M58,46c-1.103,0-2-0.897-2-2s0.897-2,2-2   s2,0.897,2,2S59.103,46,58,46z"/><path d="M52,49c-3.859,0-7,3.14-7,7s3.141,7,7,7s7-3.14,7-7S55.859,49,52,49z M52,61c-2.757,0-5-2.243-5-5s2.243-5,5-5s5,2.243,5,5   S54.757,61,52,61z"/><rect x="44" y="5" width="2" height="2"/><rect x="40" y="5" width="2" height="2"/><path d="M58,20h-2c0,5.131-5.589,9-13,9h-1v2h1C51.552,31,58,26.271,58,20z"/></g><text x="0" y="79" fill="#000000" font-size="5px" font-weight="bold" font-family="'Helvetica Neue', Helvetica, Arial-Unicode, Arial, Sans-serif">Created by Eucalyp</text><text x="0" y="84" fill="#000000" font-size="5px" font-weight="bold" font-family="'Helvetica Neue', Helvetica, Arial-Unicode, Arial, Sans-serif">from the Noun Project</text></svg>