<svg xmlns="http://www.w3.org/2000/svg" xmlns:xlink="http://www.w3.org/1999/xlink" version="1.1" x="0px" y="0px" viewBox="0 0 100 125" enable-background="new 0 0 100 100" xml:space="preserve"><g><path d="M48.4,82.5c-13.5,0-24.5-10.9-24.5-24.2S34.9,34,48.4,34S73,44.9,73,58.3S61.9,82.5,48.4,82.5z M48.4,36.5   c-12.1,0-22,9.7-22,21.7c0,12,9.9,21.7,22,21.7s22-9.7,22-21.7C70.5,46.3,60.6,36.5,48.4,36.5z"/></g><g><path d="M39.1,37.2h-2.5V30c0-0.7,0.6-1.3,1.3-1.3H59c0.7,0,1.3,0.6,1.3,1.3v7h-2.5v-5.8H39.1V37.2z"/></g><g><path d="M49.4,30.5h-2c-3,0-5.4-2.4-5.4-5.4v-6.6c0-0.7,0.6-1.3,1.3-1.3h10.2c0.7,0,1.3,0.6,1.3,1.3v6.6   C54.8,28.1,52.4,30.5,49.4,30.5z M44.6,19.7v5.4c0,1.6,1.3,2.9,2.9,2.9h2c1.6,0,2.9-1.3,2.9-2.9v-5.4H44.6z"/></g><g><rect x="53.7" y="21.5" width="11.1" height="2.5"/></g><g><path d="M70.1,26.7c-3.8,0-6.7-1.7-6.7-4s2.9-4,6.7-4c3.8,0,6.7,1.7,6.7,4S74,26.7,70.1,26.7z M70.1,21.3c-2.8,0-4.2,1.1-4.2,1.5   s1.5,1.5,4.2,1.5c2.8,0,4.2-1.1,4.2-1.5S72.9,21.3,70.1,21.3z"/></g><g><path d="M48.4,77.1v-2.5c9.2,0,16.6-7.4,16.6-16.4h2.5C67.6,68.7,59,77.1,48.4,77.1z"/></g><g><path d="M46,24.3c-0.6,0-0.9-0.9-0.9-1.9c0-0.9,0.3-1.9,0.9-1.9s0.9,1,0.9,1.9C46.8,23.4,46.6,24.3,46,24.3z M45.9,21.2   c0,0.1-0.2,0.5-0.2,1.3c0,0.7,0.2,1.1,0.3,1.2c0.1-0.1,0.3-0.5,0.3-1.2C46.2,21.7,46,21.3,45.9,21.2z"/></g><text x="0" y="115" fill="#000000" font-size="5px" font-weight="bold" font-family="'Helvetica Neue', Helvetica, Arial-Unicode, Arial, Sans-serif">Created by christine hanna</text><text x="0" y="120" fill="#000000" font-size="5px" font-weight="bold" font-family="'Helvetica Neue', Helvetica, Arial-Unicode, Arial, Sans-serif">from the Noun Project</text></svg>