<svg xmlns="http://www.w3.org/2000/svg" xmlns:xlink="http://www.w3.org/1999/xlink" version="1.1" x="0px" y="0px" viewBox="0 0 55 68.75" style="enable-background:new 0 0 55 55;" xml:space="preserve"><g><g><g><g><path d="M22.1861305,48.8774414c-0.1318359,0-0.2597656-0.0527344-0.3535156-0.1464844L6.3130832,33.2133789      c-0.078125-0.0615234-0.1396484-0.1445313-0.1708984-0.2431641c-0.0644531-0.2080078,0.0039063-0.4345703,0.1826172-0.5595703      l22.1425781-15.4179688c0.1992188-0.1396484,0.4667969-0.1152344,0.6396484,0.0566406l8.8408203,8.8408203      c0.1708984,0.1708984,0.1953125,0.4404297,0.0566406,0.6396484L22.5962868,48.6635742      c-0.0839844,0.1210938-0.21875,0.1992188-0.3662109,0.2119141      C22.2154274,48.8764648,22.200779,48.8774414,22.1861305,48.8774414z M7.3970675,32.8823242l14.7197266,14.71875      l14.828125-21.2998047l-8.2490234-8.2490234L7.3970675,32.8823242z"/></g><g><path d="M37.5933571,26.7475586c-0.1318359,0-0.2587891-0.0517578-0.3535156-0.1464844l-8.8427734-8.8427734      c-0.1103516-0.1103516-0.1630859-0.2666016-0.1416016-0.421875s0.1142578-0.2910156,0.2509766-0.3681641l8.8525391-4.9658203      c0.1943359-0.1083984,0.4384766-0.0771484,0.5976563,0.0830078l4.9560547,4.9560547      c0.1582031,0.1582031,0.1923828,0.4023438,0.0830078,0.5976563l-4.9658203,8.8525391      c-0.0771484,0.1367188-0.2128906,0.2294922-0.3681641,0.2509766      C37.6392555,26.7456055,37.615818,26.7475586,37.5933571,26.7475586z M29.5708961,17.5180664l7.9091797,7.9091797      l4.4580078-7.9462891l-4.4208984-4.4208984L29.5708961,17.5180664z"/></g><g><path d="M43.3130836,18.6489258c-0.1328201,0-0.2597656-0.0527344-0.3535156-0.1464844l-6.4628906-6.4628906      c-0.1953125-0.1953125-0.1953125-0.5117188,0-0.7070313l3.0771484-3.078125      c1.1601563-1.1601563,3.1826172-1.1601563,4.3408203,0l2.8291016,2.8291016      c0.5800781,0.5800781,0.8994141,1.3505859,0.8994141,2.1708984s-0.3193359,1.5908203-0.8994141,2.1699219l-3.0771484,3.078125      C43.5728493,18.5961914,43.4458961,18.6489258,43.3130836,18.6489258z M37.5572243,11.6860352l5.7558594,5.7558594      l2.7236328-2.7246094c0.3916016-0.390625,0.6064453-0.9101563,0.6064453-1.4628906s-0.2158203-1.0722656-0.6064453-1.4638672      l-2.8291016-2.8291016c-0.78125-0.7832031-2.1435547-0.78125-2.9267578,0L37.5572243,11.6860352z"/></g></g><g><path d="M19.669529,51.9995117c-0.7490234,0-1.4775391-0.2939453-2.0283203-0.8447266L3.8482394,37.3618164     c-0.7763672-0.7763672-1.0419922-1.9042969-0.6953125-2.9462891c0.3466797-1.0400391,1.2373047-1.7822266,2.3232422-1.9375     l1.0634766-0.1523438c0.1328125,0,0.3486328,0.0478516,0.4423828,0.1416016l15.5576172,15.5566406     c0.1113281,0.1113281,0.1640625,0.2685547,0.1416016,0.4248047l-0.15625,1.0820313     c-0.15625,1.0849609-0.9003906,1.9736328-1.9404297,2.3203125C20.2837868,51.9506836,19.975193,51.9995117,19.669529,51.9995117z      M6.4478488,33.347168l-0.8300781,0.1210938c-0.7197266,0.1025391-1.2861328,0.5751953-1.5166016,1.2636719     c-0.2294922,0.6904297-0.0595703,1.4091797,0.4540944,1.9228516l13.7929764,13.7929688     c0.5136719,0.5136719,1.2294922,0.6826172,1.9208984,0.4541016c0.6894531-0.2294922,1.1621094-0.7949219,1.265625-1.5136719     l0.1210938-0.8339844L6.4478488,33.347168z"/></g></g><g><path d="M44.975193,10.5219727c-0.1279297,0-0.2558594-0.0488281-0.3535156-0.1464844    c-0.1953125-0.1953125-0.1953125-0.5117188,0-0.7070313l6.5214844-6.5214844c0.1953125-0.1953125,0.5117188-0.1953125,0.7070313,0    s0.1953125,0.5117188,0,0.7070313l-6.5214844,6.5214844C45.2310524,10.4731445,45.1031227,10.5219727,44.975193,10.5219727z"/></g></g><text x="0" y="70" fill="#000000" font-size="5px" font-weight="bold" font-family="'Helvetica Neue', Helvetica, Arial-Unicode, Arial, Sans-serif">Created by Dinosoft Labs</text><text x="0" y="75" fill="#000000" font-size="5px" font-weight="bold" font-family="'Helvetica Neue', Helvetica, Arial-Unicode, Arial, Sans-serif">from the Noun Project</text></svg>