<svg xmlns:dc="http://purl.org/dc/elements/1.1/" xmlns:cc="http://creativecommons.org/ns#" xmlns:rdf="http://www.w3.org/1999/02/22-rdf-syntax-ns#" xmlns:svg="http://www.w3.org/2000/svg" xmlns="http://www.w3.org/2000/svg" xmlns:sodipodi="http://sodipodi.sourceforge.net/DTD/sodipodi-0.dtd" xmlns:inkscape="http://www.inkscape.org/namespaces/inkscape" version="1.1" x="0px" y="0px" viewBox="0 0 100 125"><g transform="translate(0,-952.36218)"><path style="text-indent:0;text-transform:none;direction:ltr;block-progression:tb;baseline-shift:baseline;color:#000000;enable-background:accumulate;" d="m 36.21075,959.60325 c -0.9433,0.0113 -1.8477,0.15037 -2.6816,0.40969 -1.6676,0.51862 -3.0802,1.54347 -3.8425,3.02312 -0.7623,1.47965 -0.8091,3.35732 0.0019,5.33656 1.4418,3.51855 5.4292,7.51778 13.2563,11.77657 l -34.945,0 a 1.0001,1.0001 0 0 0 -1,1 l 0,13.19187 a 1.0001,1.0001 0 0 0 1,1 l 5.2228,0 0,48.78094 a 1.0001,1.0001 0 0 0 1,1 l 71.555,0 a 1.0001,1.0001 0 0 0 1,-1 l 0,-48.78094 5.2225,0 a 1.0001,1.0001 0 0 0 1,-1 l 0,-13.19187 a 1.0001,1.0001 0 0 0 -1,-1 l -34.925,0 c 7.8272,-4.25878 11.8152,-8.25784 13.2578,-11.77625 0.8115,-1.97917 0.7653,-3.85684 0.0034,-5.33657 -0.7618,-1.47973 -2.1744,-2.50478 -3.8419,-3.02343 -5.3618,-1.66784 -13.6354,1.63165 -16.4834,11.99562 -2.4031,-8.75241 -8.6769,-12.46686 -13.8003,-12.40531 z m 0.02,2.00406 c 5.1832,-0.0611 12.6463,4.53709 12.78,18.0325 -0.0019,0.16909 -0.0042,0.33792 -0.0037,0.50938 l -1.7988,0 a 1.0001,1.0001 0 0 0 -0.2675,-0.18657 c -9.6889,-4.75216 -14.1196,-9.21967 -15.4016,-12.34812 -0.641,-1.56422 -0.5482,-2.74325 -0.0747,-3.6625 0.4736,-0.91925 1.3931,-1.63546 2.6588,-2.02906 0.6328,-0.19681 1.3455,-0.30665 2.1075,-0.31563 z m 27.5628,0 c 0.7619,0.009 1.4742,0.11884 2.1069,0.31563 1.2653,0.39357 2.1846,1.10958 2.6578,2.02875 0.4732,0.91916 0.5654,2.0982 -0.0759,3.6625 -1.2828,3.1286 -5.7142,7.59626 -15.4032,12.34843 a 1.0001,1.0001 0 0 0 -0.2678,0.18657 l -1.7984,0 c 0.001,-0.17114 -0.0013,-0.33966 -0.0031,-0.50844 0.1374,-13.49594 7.6013,-18.09441 12.7837,-18.03344 z m -54.7937,20.54188 82.0003,0 0,11.19187 -82.0003,0 0,-11.19187 z m 6.2228,13.19187 20.5406,0 0,47.78094 -20.5406,0 0,-47.78094 z m 22.5406,0 24.4438,0 0,47.78094 -24.4438,0 0,-47.78094 z m 26.4438,0 20.5706,0 0,47.78094 -20.5706,0 0,-47.78094 z" fill="#000000" fill-opacity="1" fill-rule="evenodd" stroke="none" marker="none" visibility="visible" display="inline" overflow="visible"/><path style="text-indent:0;text-transform:none;direction:ltr;block-progression:tb;baseline-shift:baseline;color:#000000;enable-background:accumulate;" d="m 23.01855,1001.4711 a 1.0001,1.0001 0 0 0 -0.9847,1.014 l 0,21.5253 a 1.0001,1.0001 0 1 0 2,0 l 0,-21.5253 a 1.0001,1.0001 0 0 0 -1.0153,-1.014 z" fill="#000000" fill-opacity="1" fill-rule="evenodd" stroke="none" marker="none" visibility="visible" display="inline" overflow="visible"/><path style="text-indent:0;text-transform:none;direction:ltr;block-progression:tb;baseline-shift:baseline;color:#000000;enable-background:accumulate;" d="m 23.01855,1028.8504 a 1.0001,1.0001 0 0 0 -0.9847,1.0144 l 0,2.8275 a 1.0001,1.0001 0 1 0 2,0 l 0,-2.8275 a 1.0001,1.0001 0 0 0 -1.0153,-1.0144 z" fill="#000000" fill-opacity="1" fill-rule="evenodd" stroke="none" marker="none" visibility="visible" display="inline" overflow="visible"/></g><text x="0" y="115" fill="#000000" font-size="5px" font-weight="bold" font-family="'Helvetica Neue', Helvetica, Arial-Unicode, Arial, Sans-serif">Created by andriwidodo</text><text x="0" y="120" fill="#000000" font-size="5px" font-weight="bold" font-family="'Helvetica Neue', Helvetica, Arial-Unicode, Arial, Sans-serif">from the Noun Project</text></svg>