<svg xmlns="http://www.w3.org/2000/svg" xmlns:xlink="http://www.w3.org/1999/xlink" version="1.1" x="0px" y="0px" viewBox="0 0 66 82.5" enable-background="new 0 0 66 66" xml:space="preserve"><g><g><path d="M61,0.5H5c-0.6,0-1,0.4-1,1v28.9c0,0.6,0.4,1,1,1h6.6v2.2H5c-0.6,0-1,0.4-1,1v29.9c0,0.6,0.4,1,1,1h56c0.6,0,1-0.4,1-1    V34.6c0-0.6-0.4-1-1-1h-6.6v-2.2H61c0.6,0,1-0.4,1-1V1.5C62,0.9,61.6,0.5,61,0.5z M60,63.5H6V35.6h54V63.5z M52.4,33.6H13.6v-2.2    h38.9V33.6z M60,29.4H6V2.5h54V29.4z"/></g><g><path d="M9,27.4h48c0.6,0,1-0.4,1-1V5.5c0-0.6-0.4-1-1-1H9c-0.6,0-1,0.4-1,1v20.9C8,27,8.4,27.4,9,27.4z M10,6.5h46v18.9H10V6.5z"/></g><g><path d="M45.5,12.5c-0.4-0.4-1-0.4-1.4,0c-0.4,0.4-0.4,1,0,1.4c3.6,3.5,4.4,5,5.4,4c0.4-0.4,0.4-1,0-1.4L45.5,12.5z"/></g><g><path d="M36.2,12.2c-0.4-0.4-1-0.4-1.4,0c-0.4,0.4-0.4,1,0,1.4l6,6c0.9,0.9,2.4-0.5,1.4-1.4L36.2,12.2z"/></g><g><path d="M15.7,37.9c-3.7,0-6.7,3-6.7,6.7c0,3.7,3,6.7,6.7,6.7c3.7,0,6.7-3,6.7-6.7C22.3,40.8,19.3,37.9,15.7,37.9z M15.7,49.2    c-2.6,0-4.7-2.1-4.7-4.7c0-2.6,2.1-4.7,4.7-4.7c2.6,0,4.7,2.1,4.7,4.7C20.3,47.1,18.2,49.2,15.7,49.2z"/></g><g><path d="M33,37.9c-3.7,0-6.7,3-6.7,6.7c0,3.7,3,6.7,6.7,6.7c3.7,0,6.7-3,6.7-6.7C39.7,40.8,36.7,37.9,33,37.9z M33,49.2    c-2.6,0-4.7-2.1-4.7-4.7c0-2.6,2.1-4.7,4.7-4.7c2.6,0,4.7,2.1,4.7,4.7C37.7,47.1,35.6,49.2,33,49.2z"/></g><g><path d="M43.7,44.5c0,3.7,3,6.7,6.7,6.7c3.7,0,6.7-3,6.7-6.7c0-3.7-3-6.7-6.7-6.7C46.7,37.9,43.7,40.8,43.7,44.5z M55,44.5    c0,2.6-2.1,4.7-4.7,4.7c-2.6,0-4.7-2.1-4.7-4.7c0-2.6,2.1-4.7,4.7-4.7C52.9,39.9,55,42,55,44.5z"/></g><g><path d="M20.3,53.2H11c-1.1,0-2,0.9-2,2v4c0,1.1,0.9,2,2,2h9.3c1.1,0,2-0.9,2-2v-4C22.3,54.1,21.4,53.2,20.3,53.2z M11,59.2v-4    h9.3l0,4H11z"/></g><g><path d="M37.7,53.2h-9.3c-1.1,0-2,0.9-2,2v4c0,1.1,0.9,2,2,2h9.3c1.1,0,2-0.9,2-2v-4C39.7,54.1,38.8,53.2,37.7,53.2z M28.3,59.2    v-4h9.3l0,4H28.3z"/></g><g><path d="M55,53.2h-9.3c-1.1,0-2,0.9-2,2v4c0,1.1,0.9,2,2,2H55c1.1,0,2-0.9,2-2v-4C57,54.1,56.1,53.2,55,53.2z M45.7,59.2v-4H55    l0,4H45.7z"/></g></g><text x="0" y="81" fill="#000000" font-size="5px" font-weight="bold" font-family="'Helvetica Neue', Helvetica, Arial-Unicode, Arial, Sans-serif">Created by ProSymbols</text><text x="0" y="86" fill="#000000" font-size="5px" font-weight="bold" font-family="'Helvetica Neue', Helvetica, Arial-Unicode, Arial, Sans-serif">from the Noun Project</text></svg>