<svg xmlns="http://www.w3.org/2000/svg" xmlns:xlink="http://www.w3.org/1999/xlink" version="1.1" x="0px" y="0px" viewBox="0 0 66 82.5" enable-background="new 0 0 66 66" xml:space="preserve"><g><g><path d="M57.1,19v-6c0-1.1-0.9-2-2-2h-1.3v-8c0-0.6-0.4-1-1-1H41c-0.6,0-1,0.4-1,1v8h-1.3c-1.1,0-2,0.9-2,2v6    c-2.3,1-4.3,3.2-4.3,5.6v37.5c0,1.9,1.5,3.4,3.4,3.4H58c1.9,0,3.4-1.5,3.4-3.4V24.7C61.4,22.2,59.4,20,57.1,19z M34.3,30.9h25    v21.9h-25V30.9z M42,8.5h2.1c0.6,0,1-0.4,1-1c0-0.6-0.4-1-1-1H42V3.9h9.8v7H42V8.5z M38.7,18.3V13H41c5.3,0,9,0,14.1,0v5.3    C38.3,18.3,41.5,18.3,38.7,18.3z M40.1,20.3c11.5,0.5,15.5-1.4,18.4,2.2c0.6,0.7,0.9,1.4,0.9,2.2v4.3h-25v-4.3    C34.3,22.8,36.6,20.3,40.1,20.3z M58,63.5H35.7c-0.7,0-1.4-0.6-1.4-1.4v-7.3h25v7.3C59.4,62.9,58.8,63.5,58,63.5z"/></g><g><path d="M55.2,36.7c-3.6,0-6.8,2-8.4,5.2c-1.5-3.1-4.7-5.2-8.3-5.2c-0.6,0-1,0.4-1,1c0,5.2,4.2,9.3,9.3,9.3c0,0,0,0,0,0    c5.2,0,9.3-4.2,9.3-9.3C56.2,37.2,55.8,36.7,55.2,36.7z M39.6,38.8c3.2,0.5,5.7,3,6.2,6.2C42.6,44.5,40.1,42,39.6,38.8z M47.9,45    c0.5-3.2,3-5.7,6.2-6.2C53.7,42,51.1,44.5,47.9,45z"/></g><g><path d="M16.5,35.9c-6.5,0-11.8,5.3-11.8,11.8v16c0,0.6,0.4,1,1,1h21.7c0.6,0,1-0.4,1-1v-16C28.3,41.2,23,35.9,16.5,35.9z     M26.3,62.7H6.6v-15c0-5.4,4.4-9.8,9.8-9.8s9.8,4.4,9.8,9.8V62.7z"/></g><g><path d="M29,4.6h3.2c0.6,0,1-0.4,1-1c0-0.6-0.4-1-1-1H29c-0.6,0-1,0.4-1,1C28,4.2,28.4,4.6,29,4.6z"/></g><g><path d="M33.1,12c0-0.6-0.4-1-1-1H29c-0.6,0-1,0.4-1,1c0,0.6,0.4,1,1,1h3.2C32.7,13,33.1,12.5,33.1,12z"/></g><g><path d="M15.2,15c1.6-0.9,4.1-1,3.5-2.5c-0.6-1.5-2.5,0.1-4.2,0.6c-0.5,0.2-0.8,0.8-0.6,1.3C14.1,15,14.7,15.3,15.2,15z"/></g><g><path d="M14.4,2.4l2.9,1.2c0.1,0,0.2,0.1,0.4,0.1c0.4,0,0.8-0.2,0.9-0.6c0.2-0.5,0-1.1-0.6-1.3l-2.9-1.2c-0.5-0.2-1.1,0-1.3,0.6    C13.7,1.6,13.9,2.2,14.4,2.4z"/></g><g><path d="M21.1,8.8h3.2c0.6,0,1-0.4,1-1c0-0.6-0.4-1-1-1h-3.2c-0.6,0-1,0.4-1,1C20.1,8.4,20.5,8.8,21.1,8.8z"/></g></g><text x="0" y="81" fill="#000000" font-size="5px" font-weight="bold" font-family="'Helvetica Neue', Helvetica, Arial-Unicode, Arial, Sans-serif">Created by ProSymbols</text><text x="0" y="86" fill="#000000" font-size="5px" font-weight="bold" font-family="'Helvetica Neue', Helvetica, Arial-Unicode, Arial, Sans-serif">from the Noun Project</text></svg>